<svg id="Layer_1" data-name="Layer 1" xmlns="http://www.w3.org/2000/svg" width="190" height="50" viewBox="0 0 190 50">
  <defs>
    <style>
      .cls-1 {
        fill: #0a0a0a;
      }

      .cls-2 {
        fill: #ed1c24;
      }

      .cls-3 {
        fill: #e9c31e;
      }
    </style>
  </defs>
  <title>Artboard 1</title>
  <g>
    <g>
      <path class="cls-1" d="M53.9,47.6V39.3h2.9a3.7,3.7,0,0,1,2.3.6,1.8,1.8,0,0,1,.8,1.6,1.4,1.4,0,0,1-.4,1.1,1.8,1.8,0,0,1-.8.7,1.7,1.7,0,0,1,1,.7,2,2,0,0,1,.3,1.1,2.5,2.5,0,0,1-.7,1.9,3.6,3.6,0,0,1-2.2.6Zm1.7-4.8h1.3c.8-.1,1.2-.4,1.2-1.1a1,1,0,0,0-.3-.8c-.2-.2-.5-.2-1-.2H55.6Zm0,1.2v2.2h1.5a1.2,1.2,0,0,0,.9-.3,1,1,0,0,0,.3-.8A1,1,0,0,0,57.2,44Z"/>
      <path class="cls-1" d="M64.1,47.7a3.1,3.1,0,0,1-2.2-.8,3,3,0,0,1-.9-2.3h0a3.3,3.3,0,0,1,.4-1.7,2.1,2.1,0,0,1,1-1.1,2.4,2.4,0,0,1,1.5-.4,2.8,2.8,0,0,1,2,.8,3.2,3.2,0,0,1,.7,2.3V45H62.7a1.2,1.2,0,0,0,.5,1,1.5,1.5,0,0,0,1,.4,2.1,2.1,0,0,0,1.5-.7l.8.9a3.9,3.9,0,0,1-1,.8A3.5,3.5,0,0,1,64.1,47.7Zm1.8-7.3H64.6l-.9-.8-.9.8H61.5l1.7-1.6h1Zm-2,2.2a.8.8,0,0,0-.8.4,1.3,1.3,0,0,0-.4.9H65a1.2,1.2,0,0,0-.3-.9A1.1,1.1,0,0,0,63.9,42.6Z"/>
      <path class="cls-1" d="M69.1,41.4v.7a2.2,2.2,0,0,1,1.8-.8,1.7,1.7,0,0,1,1.4.6,2.2,2.2,0,0,1,.5,1.7v4H71.2v-4a1.2,1.2,0,0,0-.2-.7,1.1,1.1,0,0,0-.8-.3,1.3,1.3,0,0,0-1.1.6v4.4H67.5V41.4Z"/>
      <path class="cls-1" d="M82.5,44.5a4.3,4.3,0,0,1-.6,2.4,2.2,2.2,0,0,1-1.8.8,2.1,2.1,0,0,1-1.6-.8v.7H77V38.8h1.6V42a1.8,1.8,0,0,1,1.5-.7,2.2,2.2,0,0,1,1.8.8,4.3,4.3,0,0,1,.6,2.4Zm-1.6-.1a2.3,2.3,0,0,0-.3-1.3,1.1,1.1,0,0,0-.9-.5,1.1,1.1,0,0,0-1.1.7v2.4a1.2,1.2,0,0,0,1.1.7,1.1,1.1,0,0,0,1.1-.8A4.1,4.1,0,0,0,80.9,44.4Z"/>
      <path class="cls-1" d="M87.1,47.6c0-.2-.1-.4-.1-.6a1.9,1.9,0,0,1-1.6.7,2.5,2.5,0,0,1-1.5-.5,1.8,1.8,0,0,1-.6-1.4,2.1,2.1,0,0,1,.7-1.5,4.1,4.1,0,0,1,2.1-.5h.8v-.3a1.2,1.2,0,0,0-.2-.7.9.9,0,0,0-.7-.3l-.7.2a.8.8,0,0,0-.2.6H83.5a1.7,1.7,0,0,1,.3-1,1.6,1.6,0,0,1,.9-.7,3.2,3.2,0,0,1,1.4-.3,2.8,2.8,0,0,1,1.8.6,2,2,0,0,1,.7,1.6v2.7a2.5,2.5,0,0,0,.2,1.3H87.1Zm-2.4,1.2a.5.5,0,0,1,.3-.5.7.7,0,0,1,.6-.3.9.9,0,0,1,.7.3.5.5,0,0,1,.3.5.9.9,0,0,1-.3.6l-.7.2-.6-.2A.9.9,0,0,1,84.7,48.8Zm1.1-2.4h.6a.8.8,0,0,0,.5-.5v-1h-.6c-.8,0-1.3.3-1.3.8h0c0,.2,0,.4.2.5S85.5,46.4,85.8,46.4Z"/>
      <path class="cls-1" d="M91.3,41.4v.7a2.2,2.2,0,0,1,1.8-.8,1.7,1.7,0,0,1,1.4.6,2.6,2.6,0,0,1,.5,1.7v4H93.5v-4a1,1,0,0,0-1-1,1.3,1.3,0,0,0-1.1.6v4.4H89.8V41.4Z"/>
      <path class="cls-1" d="M101.5,45.1l-.6.6v1.9H99.3V38.8h1.6v4.9l.3-.4,1.6-1.9h2L102.6,44l2.4,3.6h-1.9Z"/>
      <path class="cls-1" d="M107.1,42.1a2.3,2.3,0,0,1,1.7-.8c1.3,0,2,.8,2,2.3v4h-1.6V43.7a1,1,0,0,0-.3-.8.8.8,0,0,0-.7-.3,1.1,1.1,0,0,0-1.1.6v4.4h-1.6V38.8h1.6Z"/>
      <path class="cls-1" d="M112,39.8a.9.9,0,0,1,.3-.6.8.8,0,0,1,.7-.2c.2,0,.5,0,.6.2a.9.9,0,0,1,.3.6.6.6,0,0,1-.3.6.7.7,0,0,1-.6.3.9.9,0,0,1-.7-.3A.6.6,0,0,1,112,39.8Zm1.8,7.8h-1.7V41.4h1.7Z"/>
      <path class="cls-1" d="M120.6,46.4a1.1,1.1,0,0,0,.8-.3.9.9,0,0,0,.3-.7h1.5a2.4,2.4,0,0,1-.3,1.2,3.9,3.9,0,0,1-1,.8,2.4,2.4,0,0,1-1.2.3,2.9,2.9,0,0,1-2.1-.8,3.6,3.6,0,0,1-.8-2.4h0a3.6,3.6,0,0,1,.8-2.3,2.8,2.8,0,0,1,2-.8,2.5,2.5,0,0,1,1.9.7,2.1,2.1,0,0,1,.7,1.7h-1.5a1,1,0,0,0-1.1-1.1,1.3,1.3,0,0,0-.9.4,2.8,2.8,0,0,0-.2,1.4v.2c0,.6,0,1.1.2,1.3A1.1,1.1,0,0,0,120.6,46.4Z"/>
      <path class="cls-1" d="M125,39.8h-1l-1.3-1.5h1.4Zm2.7,7.8c0-.2-.1-.4-.1-.6a2,2,0,0,1-1.6.7,2.5,2.5,0,0,1-1.5-.5,1.9,1.9,0,0,1,.1-2.9,4.1,4.1,0,0,1,2.1-.5h.8v-.3a1.2,1.2,0,0,0-.2-.7.9.9,0,0,0-.7-.3l-.7.2a.8.8,0,0,0-.2.6H124a1.8,1.8,0,0,1,.4-1,1.6,1.6,0,0,1,.9-.7,3.2,3.2,0,0,1,1.4-.3,2.8,2.8,0,0,1,1.8.6,2,2,0,0,1,.6,1.6v2.7a4.2,4.2,0,0,0,.3,1.3h-1.7Zm1-7h-1.2l-.8-.7-.9.7h-1.2l1.6-1.3h.9Zm-2.3,5.8h.6a1.2,1.2,0,0,0,.5-.5v-1h-.6c-.8,0-1.3.3-1.3.8h0c0,.2,0,.4.2.5S126.1,46.4,126.4,46.4Z"/>
      <path class="cls-1" d="M131.9,41.4v.7a2.2,2.2,0,0,1,1.8-.8,1.7,1.7,0,0,1,1.4.6,2.6,2.6,0,0,1,.5,1.7v4h-1.6v-4a1,1,0,0,0-1-1,1.3,1.3,0,0,0-1.1.6v4.4h-1.6V41.4Z"/>
    </g>
    <g>
      <path class="cls-2" d="M15.6,26.4a10.9,10.9,0,0,1-5.3-1.3,8.7,8.7,0,0,1-3.8-3.8A11.8,11.8,0,0,1,5,15,12.5,12.5,0,0,1,6.5,8.7a11,11,0,0,1,4-4,10.6,10.6,0,0,1,5.2-1.3,10.2,10.2,0,0,1,4,.8,9.4,9.4,0,0,1,2.9,2.1l-3,3.8L17.9,8.9a4.6,4.6,0,0,0-2-.5,4.4,4.4,0,0,0-3.4,1.7A7,7,0,0,0,11,14.8a8.6,8.6,0,0,0,1.3,4.9,4.3,4.3,0,0,0,3.5,1.6,5.6,5.6,0,0,0,2.3-.5,6.1,6.1,0,0,0,1.7-1.4l3.1,3.7A9.2,9.2,0,0,1,15.6,26.4Z"/>
      <path class="cls-2" d="M25.5,26V8.9h4.8l.4,2.9h.1a7,7,0,0,1,2.3-2.5,5.2,5.2,0,0,1,2.6-.8H37l.8.2-1,5.1-.9-.2h-1a3.2,3.2,0,0,0-1.9.7,3.9,3.9,0,0,0-1.6,2.2V26Z"/>
      <path class="cls-2" d="M47.4,26.4A8.8,8.8,0,0,1,41.1,24c-1.7-1.5-2.5-3.7-2.5-6.6a8.8,8.8,0,0,1,1.1-4.7,7.7,7.7,0,0,1,3.1-3.1,7.1,7.1,0,0,1,4-1.1,6.6,6.6,0,0,1,5.6,2.4,9.6,9.6,0,0,1,1.8,5.9,6.6,6.6,0,0,1-.1,1.4c0,.5-.1.8-.1,1H44.2a3.1,3.1,0,0,0,1.5,2.1,4.9,4.9,0,0,0,2.5.6,7.2,7.2,0,0,0,3.5-1l1.9,3.5a12.8,12.8,0,0,1-3.1,1.5A12.4,12.4,0,0,1,47.4,26.4Zm-3.2-11h5a2.5,2.5,0,0,0-.5-1.7,1.9,1.9,0,0,0-1.8-.8,2.7,2.7,0,0,0-2.7,2.5Z"/>
      <path class="cls-2" d="M63.6,26.4a5.9,5.9,0,0,1-5-2.4,10.2,10.2,0,0,1-1.9-6.6c0-2.8.7-5,2.2-6.5a6.2,6.2,0,0,1,4.7-2.4,4.1,4.1,0,0,1,2.3.5,6.6,6.6,0,0,1,1.7,1.2l-.2-2.5V2.2h5.9V26H68.5l-.4-1.6h-.2a5.6,5.6,0,0,1-2,1.4A4.9,4.9,0,0,1,63.6,26.4Zm1.6-4.8a2.1,2.1,0,0,0,1.2-.3,2,2,0,0,0,1-.9V14.1a3.5,3.5,0,0,0-1.2-.7H65.1a2.2,2.2,0,0,0-1.7.9,5.2,5.2,0,0,0-.7,3.2,5.2,5.2,0,0,0,.7,3.2A1.9,1.9,0,0,0,65.2,21.6Z"/>
      <path class="cls-2" d="M80.2,6.8A3.6,3.6,0,0,1,77.8,6a2.9,2.9,0,0,1-.9-2.2,2.9,2.9,0,0,1,.9-2.1A3.6,3.6,0,0,1,80.2.9a3.6,3.6,0,0,1,2.3.8,3,3,0,0,1,1,2.1,3,3,0,0,1-1,2.2A3.6,3.6,0,0,1,80.2,6.8ZM77.2,26V8.9h5.9V26Z"/>
      <path class="cls-2" d="M94.1,26.4c-2.2,0-3.8-.6-4.8-1.9a8.1,8.1,0,0,1-1.5-5.1V13.5H85.6V9.1l2.6-.2.7-4.4h4.8V8.9h3.9v4.6H93.7v5.8a2.7,2.7,0,0,0,.6,2,2.5,2.5,0,0,0,1.5.5h.8l.7-.2.8,4.3-1.6.4Z"/>
      <path class="cls-3" d="M108.1,26V3.8h6l4.9,9.9,2.1,5h.1c-.1-1.2-.3-2.6-.4-4.1a34.9,34.9,0,0,1-.3-4.4V3.8h5.6V26h-6l-4.9-10L113,11.1h-.1c.1,1.3.3,2.6.5,4.2a32.2,32.2,0,0,1,.3,4.3V26Z"/>
      <path class="cls-3" d="M138.1,26.4a8.7,8.7,0,0,1-4.1-1.1,8.1,8.1,0,0,1-3.1-3,9.6,9.6,0,0,1-1.2-4.9,9,9,0,0,1,1.2-4.8A9.2,9.2,0,0,1,134,9.5a8.6,8.6,0,0,1,4.1-1,8,8,0,0,1,4.1,1,9.5,9.5,0,0,1,3.2,3.1,9,9,0,0,1,1.2,4.8,9.6,9.6,0,0,1-1.2,4.9,8.4,8.4,0,0,1-3.2,3A8.1,8.1,0,0,1,138.1,26.4Zm0-4.7a2,2,0,0,0,1.9-1.2,6.6,6.6,0,0,0,.6-3.1,6.8,6.8,0,0,0-.6-3.1,2.2,2.2,0,0,0-3.8,0,8.7,8.7,0,0,0-.5,3.1,8.3,8.3,0,0,0,.5,3.1A2,2,0,0,0,138.1,21.7Z"/>
      <path class="cls-3" d="M152.3,26,148.2,8.9H154l1.3,7.2.3,2.6c.1.8.2,1.7.4,2.6h.1c.1-.9.3-1.8.4-2.7l.6-2.5,1.5-7.2h5l1.7,7.2c.2.8.3,1.7.5,2.6s.3,1.7.5,2.6h.1c.2-.9.3-1.8.4-2.6l.3-2.6,1.3-7.2h5.4L169.9,26h-6.8l-1.3-6c-.1-.7-.2-1.5-.4-2.4s-.2-1.7-.4-2.6h-.1c-.2.9-.3,1.8-.4,2.6a15,15,0,0,1-.4,2.4L159,26Z"/>
      <path class="cls-3" d="M178.3,7.4c.3,2.8.6,5.6,1,8.5.2,1.3.3,2.7.5,4.1h1.5l.3-2.1c.4-3.4.9-6.7,1.3-10,.2-1.3.3-2.7.4-4s-.6-1.2-1.6-1.4-3.8.3-3.8,1.6S178.1,6.3,178.3,7.4Z"/>
      <path class="cls-3" d="M180.6,22.3a1.9,1.9,0,1,0,1.9,1.9A1.9,1.9,0,0,0,180.6,22.3Z"/>
    </g>
  </g>
</svg>
