<?xml version="1.0" encoding="iso-8859-1"?>
<!-- Generator: Adobe Illustrator 19.0.0, SVG Export Plug-In . SVG Version: 6.00 Build 0)  -->
<svg version="1.1" id="Layer_1" xmlns="http://www.w3.org/2000/svg" xmlns:xlink="http://www.w3.org/1999/xlink" x="0px" y="0px"
	 viewBox="0 0 512 512" style="enable-background:new 0 0 512 512;" xml:space="preserve">
<path style="fill:#415A6B;" d="M232.533,0h-201.6C13.867,0,0,13.867,0,30.933V480c0,18.133,13.867,32,30.933,32h201.6
	c17.067,0,30.933-13.867,30.933-30.933V30.933C263.467,13.867,249.6,0,232.533,0z"/>
<rect x="30.933" y="62.933" style="fill:#344A5E;" width="201.6" height="178.133"/>
<rect x="46.933" y="78.933" style="fill:#55C0EB;" width="169.6" height="147.2"/>
<path style="fill:#4EC0AA;" d="M77.867,274.133h-41.6c-3.2,0-5.333,2.133-5.333,5.333V300.8c0,3.2,2.133,5.333,5.333,5.333h41.6
	c3.2,0,5.333-2.133,5.333-5.333v-21.333C83.2,276.267,81.067,274.133,77.867,274.133z"/>
<path style="fill:#F3705A;" d="M227.2,274.133h-41.6c-3.2,0-5.333,2.133-5.333,5.333V300.8c0,3.2,2.133,5.333,5.333,5.333h41.6
	c3.2,0,5.333-2.133,5.333-5.333v-21.333C232.533,276.267,230.4,274.133,227.2,274.133z"/>
<path style="fill:#CED6E0;" d="M160,322.133c-9.6,9.6-45.867,9.6-56.533,0c-10.667-9.6-9.6-45.867,0-56.533
	c9.6-10.667,45.867-9.6,56.533,0C169.6,275.2,169.6,311.467,160,322.133z"/>
<path style="fill:#ADB3BA;" d="M132.267,321.067c-9.6,0-19.2-2.133-22.4-5.333c-3.2-3.2-5.333-11.733-5.333-22.4
	c0-9.6,2.133-19.2,5.333-22.4s11.733-5.333,22.4-5.333c9.6,0,19.2,2.133,22.4,5.333c3.2,3.2,5.333,11.733,5.333,22.4
	c0,9.6-2.133,19.2-5.333,22.4C150.4,318.933,141.867,321.067,132.267,321.067z"/>
<g>
	<path style="fill:#CED6E0;" d="M84.267,376.533h-48c-3.2,0-5.333-2.133-5.333-5.333V352c0-3.2,2.133-5.333,5.333-5.333h49.067
		c3.2,0,5.333,2.133,5.333,5.333v19.2C89.6,374.4,87.467,376.533,84.267,376.533z"/>
	<path style="fill:#CED6E0;" d="M155.733,376.533h-49.067c-3.2,0-5.333-2.133-5.333-5.333V352c0-3.2,2.133-5.333,5.333-5.333h49.067
		c3.2,0,5.333,2.133,5.333,5.333v19.2C161.067,374.4,158.933,376.533,155.733,376.533z"/>
	<path style="fill:#CED6E0;" d="M227.2,376.533h-49.067c-3.2,0-5.333-2.133-5.333-5.333V352c0-3.2,2.133-5.333,5.333-5.333H227.2
		c3.2,0,5.333,2.133,5.333,5.333v19.2C232.533,374.4,230.4,376.533,227.2,376.533z"/>
	<path style="fill:#CED6E0;" d="M84.267,427.733h-48c-3.2,0-5.333-2.133-5.333-5.333v-19.2c0-3.2,2.133-5.333,5.333-5.333h49.067
		c3.2,0,5.333,2.133,5.333,5.333v19.2C89.6,425.6,87.467,427.733,84.267,427.733z"/>
	<path style="fill:#CED6E0;" d="M155.733,427.733h-49.067c-3.2,0-5.333-2.133-5.333-5.333v-19.2c0-3.2,2.133-5.333,5.333-5.333
		h49.067c3.2,0,5.333,2.133,5.333,5.333v19.2C161.067,425.6,158.933,427.733,155.733,427.733z"/>
	<path style="fill:#CED6E0;" d="M227.2,427.733h-49.067c-3.2,0-5.333-2.133-5.333-5.333v-19.2c0-3.2,2.133-5.333,5.333-5.333H227.2
		c3.2,0,5.333,2.133,5.333,5.333v19.2C232.533,425.6,230.4,427.733,227.2,427.733z"/>
	<path style="fill:#CED6E0;" d="M84.267,480h-48c-3.2,0-5.333-2.133-5.333-5.333v-19.2c0-3.2,2.133-5.333,5.333-5.333h49.067
		c3.2,0,5.333,2.133,5.333,5.333v19.2C89.6,476.8,87.467,480,84.267,480z"/>
	<path style="fill:#CED6E0;" d="M155.733,480h-49.067c-3.2,0-5.333-2.133-5.333-5.333v-19.2c0-3.2,2.133-5.333,5.333-5.333h49.067
		c3.2,0,5.333,2.133,5.333,5.333v19.2C161.067,476.8,158.933,480,155.733,480z"/>
	<path style="fill:#CED6E0;" d="M227.2,480h-49.067c-3.2,0-5.333-2.133-5.333-5.333v-19.2c0-3.2,2.133-5.333,5.333-5.333H227.2
		c3.2,0,5.333,2.133,5.333,5.333v19.2C232.533,476.8,230.4,480,227.2,480z"/>
</g>
<g>
	<path style="fill:#344A5E;" d="M156.8,35.2L156.8,35.2c0-4.267-3.2-7.467-7.467-7.467h-60.8c-4.267,0-7.467,3.2-7.467,7.467l0,0
		c0,4.267,3.2,7.467,7.467,7.467h60.8C153.6,42.667,156.8,39.467,156.8,35.2z"/>
	<circle style="fill:#344A5E;" cx="174.933" cy="35.2" r="7.467"/>
</g>
<path style="fill:#F3705A;" d="M512,98.133c0,54.4-59.733,98.133-133.333,98.133c-12.8,0-24.533-1.067-36.267-3.2
	c-32,32-86.4,20.267-86.4,20.267c22.4-3.2,35.2-20.267,41.6-37.333c-32-18.133-52.267-45.867-52.267-77.867
	C245.333,43.733,305.067,0,378.667,0S512,43.733,512,98.133z"/>
<g>
	<path style="fill:#FFFFFF;" d="M308.267,86.4c-1.067,1.067-2.133,2.133-2.133,4.267s1.067,3.2,2.133,4.267
		c1.067,1.067,5.333,2.133,10.667,3.2c5.333,1.067,9.6,3.2,12.8,6.4c3.2,3.2,4.267,6.4,4.267,11.733c0,5.333-2.133,9.6-5.333,12.8
		c-4.267,3.2-8.533,4.267-14.933,4.267c-8.533,0-17.067-3.2-24.533-9.6l7.467-9.6c6.4,5.333,11.733,8.533,17.067,8.533
		c2.133,0,4.267,0,5.333-1.067c1.067-1.067,2.133-2.133,2.133-4.267s-1.067-3.2-2.133-4.267c-1.067-1.067-4.267-2.133-8.533-3.2
		c-6.4-1.067-11.733-3.2-14.933-6.4c-3.2-2.133-4.267-6.4-4.267-11.733c0-5.333,2.133-9.6,5.333-12.8
		c4.267-3.2,8.533-4.267,14.933-4.267c4.267,0,7.467,1.067,11.733,2.133s7.467,3.2,9.6,5.333l-6.4,9.6
		c-5.333-4.267-9.6-5.333-14.933-5.333C311.467,84.267,309.333,85.333,308.267,86.4z"/>
	<path style="fill:#FFFFFF;" d="M398.933,96l-16,30.933h-7.467l-16-30.933v36.267h-12.8v-57.6h17.067l14.933,32l14.933-32h17.067
		v57.6h-12.8V96H398.933z"/>
	<path style="fill:#FFFFFF;" d="M438.4,86.4c-1.067,1.067-1.067,2.133-1.067,4.267s1.067,3.2,2.133,4.267
		c1.067,1.067,5.333,2.133,10.667,3.2c5.333,1.067,9.6,3.2,12.8,6.4c3.2,3.2,4.267,6.4,4.267,11.733c0,5.333-2.133,9.6-5.333,12.8
		c-4.267,3.2-8.533,4.267-14.933,4.267c-8.533,0-17.067-3.2-24.533-9.6l7.467-9.6c6.4,5.333,11.733,8.533,17.067,8.533
		c2.133,0,4.267,0,5.333-1.067c1.067-1.067,2.133-2.133,2.133-4.267s-1.067-3.2-2.133-4.267c-1.067-1.067-4.267-2.133-8.533-3.2
		c-6.4-1.067-11.733-3.2-14.933-6.4c-3.2-2.133-4.267-6.4-4.267-11.733c0-5.333,2.133-9.6,5.333-12.8
		c4.267-3.2,8.533-4.267,14.933-4.267c4.267,0,7.467,1.067,11.733,2.133c4.267,1.067,7.467,3.2,9.6,5.333l-6.4,9.6
		c-5.333-4.267-9.6-5.333-14.933-5.333C441.6,84.267,439.467,85.333,438.4,86.4z"/>
</g>
<g>
</g>
<g>
</g>
<g>
</g>
<g>
</g>
<g>
</g>
<g>
</g>
<g>
</g>
<g>
</g>
<g>
</g>
<g>
</g>
<g>
</g>
<g>
</g>
<g>
</g>
<g>
</g>
<g>
</g>
</svg>
