<svg id="Layer_1" data-name="Layer 1" xmlns="http://www.w3.org/2000/svg" viewBox="0 0 564.75 154.3"><defs><style>.cls-1{fill:#0a0a0a;}.cls-2{fill:#ed1c24;}.cls-3{fill:#e9c31e;}</style></defs><title>444</title><path class="cls-1" d="M555.58,455V428.65h9.21c3.19,0,5.61.62,7.26,1.84a6.26,6.26,0,0,1,2.48,5.37,5.9,5.9,0,0,1-1,3.41,5.74,5.74,0,0,1-2.76,2.16,5.54,5.54,0,0,1,3.19,2,6.08,6.08,0,0,1,1.16,3.76A6.91,6.91,0,0,1,572.7,453q-2.41,1.95-6.9,2ZM561,439.67h4q4.1-.06,4.1-3.27a3,3,0,0,0-1-2.57,5.49,5.49,0,0,0-3.28-.79H561Zm0,3.83v7.11h4.64a4.49,4.49,0,0,0,3-.92,3.15,3.15,0,0,0,1.07-2.52c0-2.41-1.24-3.63-3.74-3.67Z" transform="translate(-400.77 -307.11)"/><path class="cls-1" d="M587.84,455.32a9.6,9.6,0,0,1-7-2.64,9.38,9.38,0,0,1-2.7-7v-.5a11.83,11.83,0,0,1,1.14-5.27,8.29,8.29,0,0,1,3.22-3.57,9,9,0,0,1,4.76-1.26,8.11,8.11,0,0,1,6.32,2.53q2.29,2.54,2.3,7.17v2.13H583.43A4.89,4.89,0,0,0,585,450a4.61,4.61,0,0,0,3.23,1.15,5.62,5.62,0,0,0,4.71-2.19l2.57,2.88a7.91,7.91,0,0,1-3.18,2.59A10.46,10.46,0,0,1,587.84,455.32Zm5.76-23.06v.22h-4.15l-2.78-2.61-2.78,2.61H579.8v-.29l5.35-5h3Zm-6.35,7a3.25,3.25,0,0,0-2.52,1.05,5.41,5.41,0,0,0-1.24,3h7.26v-.41a3.9,3.9,0,0,0-.94-2.7A3.38,3.38,0,0,0,587.25,439.26Z" transform="translate(-400.77 -307.11)"/><path class="cls-1" d="M603.65,435.41l.16,2.26a6.82,6.82,0,0,1,5.62-2.62,5.69,5.69,0,0,1,4.63,1.83,8.47,8.47,0,0,1,1.55,5.45V455h-5.22v-12.5a3.42,3.42,0,0,0-.72-2.42,3.31,3.31,0,0,0-2.41-.75,3.58,3.58,0,0,0-3.3,1.88V455h-5.22V435.41Z" transform="translate(-400.77 -307.11)"/><path class="cls-1" d="M646.4,445.37q0,4.69-2,7.32a6.65,6.65,0,0,1-5.6,2.63,6.11,6.11,0,0,1-5.08-2.44l-.23,2.08h-4.7V427.21H634v10a6,6,0,0,1,4.75-2.11,6.69,6.69,0,0,1,5.61,2.63q2,2.63,2,7.4Zm-5.23-.38a7.75,7.75,0,0,0-.94-4.33,3.17,3.17,0,0,0-2.8-1.37,3.45,3.45,0,0,0-3.43,2v7.71a3.5,3.5,0,0,0,3.47,2.06,3.22,3.22,0,0,0,3.32-2.49A12.64,12.64,0,0,0,641.17,445Z" transform="translate(-400.77 -307.11)"/><path class="cls-1" d="M660.94,455a5.84,5.84,0,0,1-.53-1.75,6.29,6.29,0,0,1-4.93,2.11,6.94,6.94,0,0,1-4.76-1.66,5.35,5.35,0,0,1-1.89-4.19,5.52,5.52,0,0,1,2.31-4.77q2.29-1.67,6.65-1.68h2.41V441.9a3.18,3.18,0,0,0-.7-2.17,2.72,2.72,0,0,0-2.19-.81,3.12,3.12,0,0,0-2.07.63,2.14,2.14,0,0,0-.75,1.73h-5.22a5.22,5.22,0,0,1,1.05-3.14,6.89,6.89,0,0,1,3-2.27,10.74,10.74,0,0,1,4.3-.82,8.51,8.51,0,0,1,5.73,1.82,6.34,6.34,0,0,1,2.13,5.1v8.47a9.39,9.39,0,0,0,.77,4.21V455Zm-7.66,3.94a2.26,2.26,0,0,1,.81-1.79,3.48,3.48,0,0,1,4.21,0,2.26,2.26,0,0,1,.81,1.79,2.31,2.31,0,0,1-.8,1.79,3.48,3.48,0,0,1-4.24,0A2.33,2.33,0,0,1,653.28,458.9Zm3.34-7.57a4.42,4.42,0,0,0,2.13-.52,3.4,3.4,0,0,0,1.45-1.38v-3.36h-2q-3.93,0-4.18,2.71v.31a2.09,2.09,0,0,0,.68,1.61A2.69,2.69,0,0,0,656.62,451.33Z" transform="translate(-400.77 -307.11)"/><path class="cls-1" d="M674.25,435.41l.17,2.26a6.8,6.8,0,0,1,5.61-2.62,5.66,5.66,0,0,1,4.63,1.83,8.47,8.47,0,0,1,1.55,5.45V455H681v-12.5a3.42,3.42,0,0,0-.72-2.42,3.27,3.27,0,0,0-2.4-.75,3.6,3.6,0,0,0-3.31,1.88V455h-5.22V435.41Z" transform="translate(-400.77 -307.11)"/><path class="cls-1" d="M706.48,447.12,704.6,449v6h-5.22V427.21h5.22v15.37l1-1.3,5-5.87h6.27l-7.06,8.15L717.5,455h-6Z" transform="translate(-400.77 -307.11)"/><path class="cls-1" d="M724.24,437.54a6.53,6.53,0,0,1,5.22-2.49q6.36,0,6.45,7.39V455h-5.22V442.58a3.64,3.64,0,0,0-.72-2.48,3.08,3.08,0,0,0-2.4-.81,3.57,3.57,0,0,0-3.33,1.78V455H719V427.21h5.22Z" transform="translate(-400.77 -307.11)"/><path class="cls-1" d="M739.82,430.35a2.58,2.58,0,0,1,.78-1.93,3.38,3.38,0,0,1,4.27,0,2.75,2.75,0,0,1,0,3.88,3.35,3.35,0,0,1-4.25,0A2.53,2.53,0,0,1,739.82,430.35ZM745.36,455h-5.24V435.41h5.24Z" transform="translate(-400.77 -307.11)"/><path class="cls-1" d="M767,451.11a3.45,3.45,0,0,0,2.35-.79,2.78,2.78,0,0,0,.93-2.12h4.9a6.66,6.66,0,0,1-1.08,3.64,7.22,7.22,0,0,1-2.92,2.57,9.13,9.13,0,0,1-4.09.91,8.52,8.52,0,0,1-6.62-2.66,10.59,10.59,0,0,1-2.42-7.37V445a10.4,10.4,0,0,1,2.41-7.21,8.4,8.4,0,0,1,6.59-2.69,8.21,8.21,0,0,1,5.88,2.09,7.35,7.35,0,0,1,2.25,5.55h-4.9a3.58,3.58,0,0,0-.93-2.48,3.51,3.51,0,0,0-5.15.38,7.71,7.71,0,0,0-.92,4.31v.55a7.76,7.76,0,0,0,.92,4.34A3.17,3.17,0,0,0,767,451.11Z" transform="translate(-400.77 -307.11)"/><path class="cls-1" d="M780.83,430.39h-3l-4.08-4.9h4.15ZM789.5,455a5.84,5.84,0,0,1-.53-1.75,6.29,6.29,0,0,1-4.93,2.11,6.94,6.94,0,0,1-4.76-1.66,5.35,5.35,0,0,1-1.89-4.19,5.52,5.52,0,0,1,2.31-4.77Q782,443,786.36,443h2.4V441.9a3.18,3.18,0,0,0-.7-2.17,2.72,2.72,0,0,0-2.19-.81,3.12,3.12,0,0,0-2.07.63,2.14,2.14,0,0,0-.75,1.73h-5.22a5.22,5.22,0,0,1,1-3.14,6.89,6.89,0,0,1,3-2.27,10.78,10.78,0,0,1,4.3-.82,8.55,8.55,0,0,1,5.74,1.82A6.36,6.36,0,0,1,794,442v8.47a9.39,9.39,0,0,0,.77,4.21V455Zm3.23-22.14h-3.88l-2.73-2.3-2.73,2.3h-3.9l5.15-4.17h2.94Zm-7.55,18.51a4.42,4.42,0,0,0,2.13-.52,3.35,3.35,0,0,0,1.45-1.38v-3.36h-2q-3.93,0-4.18,2.71v.31a2.09,2.09,0,0,0,.68,1.61A2.69,2.69,0,0,0,785.18,451.33Z" transform="translate(-400.77 -307.11)"/><path class="cls-1" d="M802.81,435.41l.17,2.26a6.8,6.8,0,0,1,5.61-2.62,5.66,5.66,0,0,1,4.63,1.83,8.47,8.47,0,0,1,1.55,5.45V455h-5.22v-12.5a3.42,3.42,0,0,0-.72-2.42,3.27,3.27,0,0,0-2.4-.75,3.6,3.6,0,0,0-3.31,1.88V455H797.9V435.41Z" transform="translate(-400.77 -307.11)"/><path class="cls-2" d="M434.32,387.85a35.2,35.2,0,0,1-16.61-4,30.47,30.47,0,0,1-12.28-12q-4.67-8-4.66-20,0-11.79,4.82-20.07a33.11,33.11,0,0,1,12.55-12.61,33.46,33.46,0,0,1,16.62-4.33,27.75,27.75,0,0,1,12.55,2.81,35.76,35.76,0,0,1,9.31,6.49l-9.74,11.91a28.16,28.16,0,0,0-5.36-3.73,13.26,13.26,0,0,0-6.33-1.46q-6.17,0-10.77,5.41t-4.6,14.93q0,10,4.17,15.26a13.27,13.27,0,0,0,11,5.31,14.46,14.46,0,0,0,7.31-1.84,24.3,24.3,0,0,0,5.46-4.22l9.75,11.69Q448.61,387.84,434.32,387.85Z" transform="translate(-400.77 -307.11)"/><path class="cls-2" d="M465.71,386.55V332.43h15.15l1.3,9.31h.43a20.84,20.84,0,0,1,7.2-8.06,15.61,15.61,0,0,1,8.17-2.55,20.39,20.39,0,0,1,4.06.33,16,16,0,0,1,2.65.75l-3,16-2.92-.59a16.78,16.78,0,0,0-3.14-.27,11.3,11.3,0,0,0-6.11,2.05q-3.2,2.06-5.14,7v30.09Z" transform="translate(-400.77 -307.11)"/><path class="cls-2" d="M535,387.85q-11.91,0-19.92-7.47t-8-20.89a29.18,29.18,0,0,1,3.73-15.1,26.84,26.84,0,0,1,9.69-9.79A24.55,24.55,0,0,1,533,331.13q12,0,17.81,7.69a29.92,29.92,0,0,1,5.79,18.5,37.89,37.89,0,0,1-.28,4.6c-.18,1.48-.34,2.55-.48,3.2H525c.87,3.24,2.42,5.5,4.66,6.76a15.82,15.82,0,0,0,7.9,1.9,22.93,22.93,0,0,0,11-3.25l6.06,11a33.85,33.85,0,0,1-9.74,4.65A35,35,0,0,1,535,387.85ZM524.81,353h16a9.61,9.61,0,0,0-1.57-5.41c-1-1.58-3-2.38-5.79-2.38a8.66,8.66,0,0,0-5.41,1.84A9.68,9.68,0,0,0,524.81,353Z" transform="translate(-400.77 -307.11)"/><path class="cls-2" d="M586.5,387.85a19.48,19.48,0,0,1-16.08-7.58q-6-7.57-6-20.78t6.92-20.84q6.93-7.51,15.16-7.52a15.65,15.65,0,0,1,7.25,1.52,21.55,21.55,0,0,1,5.3,3.89l-.65-7.79V311.22H617v75.33H601.86l-1.29-5h-.44a22.82,22.82,0,0,1-6.44,4.54A16.51,16.51,0,0,1,586.5,387.85Zm5-15.16a8.36,8.36,0,0,0,3.79-.81,8.74,8.74,0,0,0,3.14-3.08V348.88a8.48,8.48,0,0,0-3.63-2.05,14.4,14.4,0,0,0-3.73-.55,6.67,6.67,0,0,0-5.25,2.93q-2.32,2.91-2.33,10.06,0,7.37,2.17,10.39A6.81,6.81,0,0,0,591.47,372.69Z" transform="translate(-400.77 -307.11)"/><path class="cls-2" d="M638.88,325.72a10.79,10.79,0,0,1-7.47-2.6,9.17,9.17,0,0,1,0-13.42,12.07,12.07,0,0,1,14.94,0,9.17,9.17,0,0,1,0,13.42A10.79,10.79,0,0,1,638.88,325.72Zm-9.31,60.83V332.43h18.62v54.12Z" transform="translate(-400.77 -307.11)"/><path class="cls-2" d="M683,387.85q-10.62,0-15.27-6.07t-4.65-16V346.93H656V333.08l8.22-.65,2.17-14.07h15.37v14.07h12.33v14.5H681.74v18.51q0,4.44,1.94,6.17a6.63,6.63,0,0,0,4.55,1.73,11.9,11.9,0,0,0,2.54-.27c.83-.18,1.57-.38,2.22-.59l2.82,13.42q-2.17.64-5.25,1.3A37.43,37.43,0,0,1,683,387.85Z" transform="translate(-400.77 -307.11)"/><path class="cls-3" d="M727.19,386.55V316.2h19l15.59,31.38,6.71,15.81H769q-.65-5.64-1.52-13a120.57,120.57,0,0,1-.86-13.86V316.2h17.75v70.35H765.29l-15.59-31.5L743,339.36h-.43q.65,6.06,1.52,13.2a114.94,114.94,0,0,1,.86,13.64v20.35Z" transform="translate(-400.77 -307.11)"/><path class="cls-3" d="M822.44,387.85a26.6,26.6,0,0,1-23-13.05,32.39,32.39,0,0,1,0-30.63,26.37,26.37,0,0,1,9.95-9.68,26.78,26.78,0,0,1,36.05,9.68,32.46,32.46,0,0,1,0,30.63,26.63,26.63,0,0,1-23,13.05Zm0-14.94a6.18,6.18,0,0,0,6-3.63,27.69,27.69,0,0,0,0-19.59,6.79,6.79,0,0,0-12,0,27.69,27.69,0,0,0,0,19.59A6.18,6.18,0,0,0,822.44,372.91Z" transform="translate(-400.77 -307.11)"/><path class="cls-3" d="M867.24,386.55l-13-54.12h18.4l4.11,22.73q.65,4.11,1.08,8.17t1.08,8.28h.44q.64-4.22,1.35-8.39t1.68-8.06l5-22.73h15.81l5.19,22.73q1,4.11,1.68,8.17t1.57,8.28h.43q.65-4.22,1.08-8.28t1.09-8.17l4.11-22.73h17.1l-12.34,54.12H901.44l-3.89-18.84q-.66-3.68-1.3-7.57c-.43-2.6-.87-5.38-1.3-8.34h-.43c-.44,3-.83,5.74-1.19,8.34s-.76,5.12-1.19,7.57l-3.68,18.84Z" transform="translate(-400.77 -307.11)"/><path class="cls-3" d="M949.56,327.64q1.59,13.44,3.25,26.87c.53,4.32,1.09,8.64,1.64,13l4.59,0c.34-2.32.67-4.53,1-6.74,1.41-10.54,2.85-21.08,4.22-31.62.53-4.16,1-8.32,1.29-12.49.16-2.32-1.75-3.88-4.94-4.53-6-1.22-12.18.95-12,5C948.66,320.68,949.15,324.16,949.56,327.64Z" transform="translate(-400.77 -307.11)"/><path class="cls-3" d="M957.1,374.92a6,6,0,0,0-.16,12,6,6,0,1,0,.16-12Z" transform="translate(-400.77 -307.11)"/><text x="-400.77" y="-307.11"></text></svg>