<?xml version="1.0" encoding="utf-8"?>
<!-- Generator: Adobe Illustrator 23.0.2, SVG Export Plug-In . SVG Version: 6.00 Build 0)  -->
<svg version="1.1" id="Layer_1" xmlns="http://www.w3.org/2000/svg" xmlns:xlink="http://www.w3.org/1999/xlink" x="0px" y="0px"
	 viewBox="0 0 306 50" style="enable-background:new 0 0 306 50;" xml:space="preserve">
<style type="text/css">
	.st0{fill:#ED1C24;}
	.st1{fill:#E9C31E;}
	.st2{enable-background:new    ;}
</style>
<g>
	<g>
		<g>
			<g>
				<path class="st0" d="M19.4,34.4c-1.7,0-3.2-0.4-4.7-1.1c-1.4-0.7-2.6-1.9-3.4-3.4c-0.9-1.5-1.3-3.4-1.3-5.6s0.4-4.1,1.3-5.6
					c0.9-1.5,2.1-2.7,3.5-3.5c1.4-0.8,3-1.2,4.7-1.2c1.3,0,2.5,0.3,3.5,0.8c1.1,0.5,1.9,1.1,2.6,1.8l-2.7,3.3c-0.5-0.4-1-0.8-1.5-1
					c-0.5-0.3-1.1-0.4-1.8-0.4c-1.2,0-2.2,0.5-3,1.5c-0.9,1-1.3,2.4-1.3,4.2c0,1.9,0.4,3.3,1.2,4.3c0.8,1,1.8,1.5,3.1,1.5
					c0.8,0,1.5-0.2,2-0.5c0.6-0.3,1.1-0.7,1.5-1.2l2.7,3.3C24.2,33.4,22.1,34.4,19.4,34.4z"/>
			</g>
		</g>
		<g>
			<g>
				<path class="st0" d="M28.2,34V18.8h4.2l0.4,2.6h0.1c0.6-1,1.2-1.8,2-2.3s1.5-0.7,2.3-0.7c0.5,0,0.8,0,1.1,0.1s0.5,0.1,0.7,0.2
					l-0.8,4.5c-0.3-0.1-0.6-0.1-0.8-0.2c-0.3-0.1-0.6-0.1-0.9-0.1c-0.5,0-1.1,0.2-1.7,0.6c-0.6,0.4-1.1,1-1.4,2v8.4L28.2,34L28.2,34
					z"/>
			</g>
		</g>
		<g>
			<g>
				<path class="st0" d="M47.6,34.4c-2.2,0-4.1-0.7-5.6-2.1c-1.5-1.4-2.2-3.3-2.2-5.9c0-1.6,0.3-3,1-4.2c0.7-1.2,1.6-2.1,2.7-2.7
					c1.1-0.6,2.3-1,3.5-1c2.2,0,3.9,0.7,5,2.2c1.1,1.4,1.6,3.2,1.6,5.2c0,0.4,0,0.9-0.1,1.3s-0.1,0.7-0.1,0.9h-8.6
					c0.2,0.9,0.7,1.5,1.3,1.9s1.4,0.5,2.2,0.5c1,0,2-0.3,3.1-0.9l1.7,3.1c-0.8,0.6-1.7,1-2.7,1.3C49.4,34.2,48.5,34.4,47.6,34.4z
					 M44.8,24.6h4.5c0-0.6-0.1-1.1-0.4-1.5c-0.3-0.4-0.8-0.7-1.6-0.7c-0.6,0-1.1,0.2-1.5,0.5C45.2,23.3,44.9,23.8,44.8,24.6z"/>
			</g>
		</g>
		<g>
			<g>
				<path class="st0" d="M62.1,34.4c-1.9,0-3.4-0.7-4.5-2.1c-1.1-1.4-1.7-3.4-1.7-5.8c0-2.5,0.6-4.4,1.9-5.8
					c1.3-1.4,2.7-2.1,4.2-2.1c0.8,0,1.5,0.1,2,0.4s1,0.6,1.5,1.1l-0.2-2.2v-5h5.2V34h-4.2L66,32.6h-0.1c-0.5,0.5-1.1,1-1.8,1.3
					C63.4,34.2,62.7,34.4,62.1,34.4z M63.5,30.1c0.4,0,0.8-0.1,1.1-0.2c0.3-0.2,0.6-0.4,0.9-0.9v-5.6c-0.3-0.3-0.6-0.5-1-0.6
					s-0.7-0.2-1-0.2c-0.5,0-1,0.3-1.5,0.8c-0.4,0.5-0.7,1.5-0.7,2.8c0,1.4,0.2,2.3,0.6,2.9C62.2,29.8,62.8,30.1,63.5,30.1z"/>
			</g>
		</g>
		<g>
			<g>
				<path class="st0" d="M76.7,16.9c-0.8,0-1.5-0.2-2.1-0.7c-0.5-0.5-0.8-1.1-0.8-1.9s0.3-1.4,0.8-1.9s1.2-0.7,2.1-0.7
					c0.8,0,1.5,0.2,2.1,0.7c0.5,0.5,0.8,1.1,0.8,1.9s-0.3,1.4-0.8,1.9C78.3,16.7,77.6,16.9,76.7,16.9z M74.1,34V18.8h5.2V34H74.1z"
					/>
			</g>
		</g>
		<g>
			<g>
				<path class="st0" d="M89.1,34.4c-2,0-3.4-0.6-4.3-1.7c-0.9-1.1-1.3-2.6-1.3-4.5v-5.3h-2V19l2.3-0.2l0.6-3.9h4.3v3.9h3.5v4.1
					h-3.5v5.2c0,0.8,0.2,1.4,0.5,1.7c0.4,0.3,0.8,0.5,1.3,0.5c0.2,0,0.5,0,0.7-0.1s0.4-0.1,0.6-0.2l0.8,3.8
					c-0.4,0.1-0.9,0.2-1.5,0.4C90.6,34.3,89.9,34.4,89.1,34.4z"/>
			</g>
		</g>
		<g>
			<g>
				<path class="st1" d="M101.5,34V14.3h5.3l4.4,8.8l1.9,4.4h0.1c-0.1-1.1-0.3-2.3-0.4-3.6c-0.2-1.4-0.2-2.7-0.2-3.9v-5.7h5V34h-5.3
					l-4.4-8.8l-1.9-4.4h-0.1c0.1,1.1,0.3,2.4,0.4,3.7c0.2,1.3,0.2,2.6,0.2,3.8V34H101.5z"/>
			</g>
		</g>
		<g>
			<g>
				<path class="st1" d="M128.2,34.4c-1.3,0-2.5-0.3-3.7-0.9c-1.1-0.6-2.1-1.5-2.8-2.7c-0.7-1.2-1.1-2.6-1.1-4.3
					c0-1.7,0.4-3.1,1.1-4.3c0.7-1.2,1.6-2.1,2.8-2.7c1.1-0.6,2.4-0.9,3.7-0.9c1.3,0,2.5,0.3,3.7,0.9c1.1,0.6,2.1,1.5,2.8,2.7
					s1.1,2.6,1.1,4.3s-0.4,3.1-1.1,4.3c-0.7,1.2-1.6,2.1-2.8,2.7C130.7,34,129.5,34.4,128.2,34.4z M128.2,30.2c0.8,0,1.4-0.3,1.7-1
					s0.5-1.6,0.5-2.7c0-1.2-0.2-2.1-0.5-2.7c-0.3-0.7-0.9-1-1.7-1s-1.4,0.3-1.7,1c-0.3,0.7-0.5,1.6-0.5,2.7c0,1.2,0.2,2.1,0.5,2.7
					C126.8,29.8,127.4,30.2,128.2,30.2z"/>
			</g>
		</g>
		<g>
			<g>
				<path class="st1" d="M140.7,34l-3.6-15.2h5.2l1.2,6.4c0.1,0.8,0.2,1.5,0.3,2.3s0.2,1.5,0.3,2.3h0.1c0.1-0.8,0.2-1.6,0.4-2.4
					c0.1-0.8,0.3-1.5,0.5-2.3l1.4-6.4h4.4l1.5,6.4c0.2,0.8,0.3,1.5,0.5,2.3c0.1,0.8,0.3,1.5,0.4,2.3h0.1c0.1-0.8,0.2-1.6,0.3-2.3
					c0.1-0.8,0.2-1.5,0.3-2.3l1.2-6.4h4.8l-3.5,15.2h-6.1l-1.1-5.3c-0.1-0.7-0.2-1.4-0.4-2.1c-0.1-0.7-0.2-1.5-0.4-2.3h-0.1
					c-0.1,0.8-0.2,1.6-0.3,2.3c-0.1,0.7-0.2,1.4-0.3,2.1l-1,5.3L140.7,34L140.7,34z"/>
			</g>
		</g>
		<g>
			<g>
				<path class="st1" d="M163.8,17.5c0.3,2.5,0.6,5,0.9,7.5c0.1,1.2,0.3,2.4,0.5,3.7c0.3,0,0.9,0,1.3,0c0.1-0.6,0.2-1.3,0.3-1.9
					c0.4-3,0.8-5.9,1.2-8.9c0.2-1.2,0.3-2.3,0.4-3.5c0-0.6-0.5-1.1-1.4-1.3c-1.7-0.3-3.4,0.3-3.4,1.4
					C163.6,15.5,163.7,16.5,163.8,17.5z"/>
			</g>
		</g>
		<g>
			<g>
				<path class="st1" d="M165.9,30.7c-0.9,0-1.7,0.7-1.7,1.7c0,1,0.7,1.7,1.7,1.7c0.9,0,1.7-0.7,1.7-1.7
					C167.6,31.5,166.9,30.7,165.9,30.7z"/>
			</g>
		</g>
	</g>
</g>
<g>
	<rect x="179" y="9.6" width="1" height="26.9"/>
</g>
<g class="st2">
	<path d="M194.3,29.3h-3.1V16.5h3.1V29.3z"/>
	<path d="M199,19.8l0.1,1.1c0.7-0.9,1.6-1.3,2.7-1.3c1,0,1.7,0.3,2.2,0.9c0.5,0.6,0.7,1.5,0.8,2.7v6.1h-3v-6c0-0.5-0.1-0.8-0.3-1.1
		c-0.2-0.2-0.5-0.3-1.1-0.3c-0.6,0-1,0.2-1.3,0.7v6.7h-3v-9.5H199z"/>
	<path d="M211.4,26.6c0-0.3-0.1-0.5-0.4-0.6s-0.8-0.3-1.5-0.5s-1.3-0.4-1.8-0.6s-0.8-0.6-1.1-1s-0.4-0.8-0.4-1.3
		c0-0.9,0.4-1.6,1.1-2.2c0.7-0.6,1.7-0.8,2.8-0.8c1.3,0,2.3,0.3,3,0.9s1.1,1.3,1.1,2.2h-3c0-0.8-0.4-1.1-1.2-1.1
		c-0.3,0-0.6,0.1-0.8,0.3s-0.3,0.4-0.3,0.6c0,0.3,0.1,0.5,0.4,0.6s0.7,0.3,1.2,0.4c0.6,0.1,1.1,0.2,1.5,0.4c1.4,0.5,2.1,1.4,2.1,2.6
		c0,0.9-0.4,1.6-1.2,2.1c-0.8,0.5-1.8,0.8-3,0.8c-0.8,0-1.5-0.1-2.2-0.4s-1.1-0.7-1.5-1.2s-0.5-1-0.5-1.6h2.8c0,0.4,0.2,0.8,0.4,1
		c0.3,0.2,0.6,0.3,1.1,0.3c0.4,0,0.7-0.1,0.9-0.2C211.3,27.1,211.4,26.9,211.4,26.6z"/>
	<path d="M221.3,28.2c-0.6,0.8-1.5,1.2-2.5,1.2c-1,0-1.8-0.3-2.4-0.9c-0.5-0.6-0.8-1.5-0.8-2.6v-6.2h3v6.2c0,0.8,0.4,1.2,1.2,1.2
		c0.7,0,1.2-0.2,1.5-0.7v-6.7h3v9.5h-2.8L221.3,28.2z"/>
	<path d="M231.5,22.4l-1-0.1c-0.9,0-1.5,0.3-1.8,0.9v6h-3v-9.5h2.8l0.1,1.2c0.5-0.9,1.2-1.4,2.1-1.4c0.3,0,0.6,0,0.8,0.1L231.5,22.4
		z"/>
	<path d="M237.7,29.3c-0.1-0.2-0.2-0.5-0.3-0.9c-0.5,0.7-1.3,1-2.3,1c-0.9,0-1.7-0.3-2.3-0.8s-0.9-1.2-0.9-2c0-1,0.4-1.8,1.1-2.3
		s1.9-0.8,3.3-0.8h0.9V23c0-0.9-0.4-1.3-1.1-1.3c-0.7,0-1.1,0.3-1.1,1h-3c0-0.9,0.4-1.7,1.2-2.2c0.8-0.6,1.8-0.9,3-0.9
		s2.2,0.3,2.9,0.9s1.1,1.4,1.1,2.4v4.2c0,0.9,0.1,1.5,0.4,2v0.1H237.7z M235.8,27.3c0.4,0,0.7-0.1,0.9-0.2c0.2-0.2,0.4-0.3,0.5-0.5
		V25h-0.9c-1,0-1.5,0.5-1.5,1.4c0,0.3,0.1,0.5,0.3,0.7C235.3,27.3,235.6,27.3,235.8,27.3z"/>
	<path d="M244.6,19.8l0.1,1.1c0.7-0.9,1.6-1.3,2.7-1.3c1,0,1.7,0.3,2.2,0.9c0.5,0.6,0.7,1.5,0.8,2.7v6.1h-3v-6
		c0-0.5-0.1-0.8-0.3-1.1c-0.2-0.2-0.5-0.3-1.1-0.3c-0.6,0-1,0.2-1.3,0.7v6.7h-3v-9.5H244.6z"/>
	<path d="M256.1,27.2c0.4,0,0.7-0.1,1-0.3s0.3-0.5,0.3-0.9h2.8c0,1-0.4,1.9-1.1,2.6c-0.7,0.7-1.7,1-2.9,1c-1.4,0-2.5-0.4-3.3-1.3
		s-1.2-2.1-1.2-3.6v-0.1c0-1,0.2-1.8,0.5-2.5c0.4-0.7,0.9-1.3,1.5-1.7c0.7-0.4,1.5-0.6,2.4-0.6c1.2,0,2.2,0.3,2.9,1s1.1,1.6,1.1,2.8
		h-2.8c0-0.5-0.1-0.9-0.4-1.1s-0.6-0.4-1-0.4c-0.8,0-1.2,0.5-1.3,1.5c0,0.3-0.1,0.7-0.1,1.3c0,1,0.1,1.6,0.3,2
		C255.2,27,255.6,27.2,256.1,27.2z"/>
	<path d="M266,29.4c-1.5,0-2.6-0.4-3.5-1.3c-0.9-0.9-1.4-2-1.4-3.4v-0.2c0-1,0.2-1.8,0.5-2.6c0.4-0.7,0.9-1.3,1.6-1.7
		s1.5-0.6,2.5-0.6c1.3,0,2.4,0.4,3.2,1.2s1.2,2,1.2,3.5v1.2h-5.9c0.1,0.5,0.3,1,0.7,1.3s0.8,0.5,1.4,0.5c0.9,0,1.7-0.3,2.2-1
		l1.4,1.6c-0.4,0.5-0.9,0.9-1.6,1.2C267.5,29.3,266.8,29.4,266,29.4z M265.7,21.9c-0.9,0-1.4,0.6-1.5,1.7h3v-0.2
		c0-0.5-0.1-0.8-0.4-1.1C266.5,22,266.1,21.9,265.7,21.9z"/>
</g>
</svg>
