<?xml version="1.0" encoding="utf-8"?>
<!-- Generator: Adobe Illustrator 22.0.0, SVG Export Plug-In . SVG Version: 6.00 Build 0)  -->
<svg version="1.1" id="Layer_1" xmlns="http://www.w3.org/2000/svg" xmlns:xlink="http://www.w3.org/1999/xlink" x="0px" y="0px"
	 viewBox="0 0 180 50" style="enable-background:new 0 0 180 50;" xml:space="preserve">
<style type="text/css">
	.st0{fill:#ED1C24;}
	.st1{fill:#E9C31E;}
</style>
<g>
	<g>
		<g>
			<path class="st0" d="M19.4,27.9c-1.7,0-3.2-0.4-4.7-1.1c-1.4-0.7-2.6-1.9-3.4-3.4C10.4,21.9,10,20,10,17.8c0-2.2,0.4-4.1,1.3-5.6
				c0.9-1.5,2.1-2.7,3.5-3.5c1.4-0.8,3-1.2,4.7-1.2c1.3,0,2.5,0.3,3.5,0.8c1.1,0.5,1.9,1.1,2.6,1.8l-2.7,3.3c-0.5-0.4-1-0.8-1.5-1
				c-0.5-0.3-1.1-0.4-1.8-0.4c-1.2,0-2.2,0.5-3,1.5c-0.9,1-1.3,2.4-1.3,4.2c0,1.9,0.4,3.3,1.2,4.3c0.8,1,1.8,1.5,3.1,1.5
				c0.8,0,1.5-0.2,2-0.5c0.6-0.3,1.1-0.7,1.5-1.2l2.7,3.3C24.2,26.9,22.1,27.9,19.4,27.9z"/>
		</g>
		<g>
			<path class="st0" d="M28.2,27.5V12.3h4.2l0.4,2.6h0.1c0.6-1,1.2-1.8,2-2.3c0.8-0.5,1.5-0.7,2.3-0.7c0.5,0,0.8,0,1.1,0.1
				c0.3,0.1,0.5,0.1,0.7,0.2l-0.8,4.5c-0.3-0.1-0.6-0.1-0.8-0.2c-0.3-0.1-0.6-0.1-0.9-0.1c-0.5,0-1.1,0.2-1.7,0.6
				c-0.6,0.4-1.1,1-1.4,2v8.4H28.2z"/>
		</g>
		<g>
			<path class="st0" d="M47.6,27.9c-2.2,0-4.1-0.7-5.6-2.1c-1.5-1.4-2.2-3.3-2.2-5.9c0-1.6,0.3-3,1-4.2c0.7-1.2,1.6-2.1,2.7-2.7
				c1.1-0.6,2.3-1,3.5-1c2.2,0,3.9,0.7,5,2.2c1.1,1.4,1.6,3.2,1.6,5.2c0,0.4,0,0.9-0.1,1.3c-0.1,0.4-0.1,0.7-0.1,0.9h-8.6
				c0.2,0.9,0.7,1.5,1.3,1.9c0.6,0.4,1.4,0.5,2.2,0.5c1,0,2-0.3,3.1-0.9l1.7,3.1c-0.8,0.6-1.7,1-2.7,1.3
				C49.4,27.7,48.5,27.9,47.6,27.9z M44.8,18.1h4.5c0-0.6-0.1-1.1-0.4-1.5c-0.3-0.4-0.8-0.7-1.6-0.7c-0.6,0-1.1,0.2-1.5,0.5
				C45.2,16.8,44.9,17.3,44.8,18.1z"/>
		</g>
		<g>
			<path class="st0" d="M62.1,27.9c-1.9,0-3.4-0.7-4.5-2.1c-1.1-1.4-1.7-3.4-1.7-5.8c0-2.5,0.6-4.4,1.9-5.8c1.3-1.4,2.7-2.1,4.2-2.1
				c0.8,0,1.5,0.1,2,0.4c0.5,0.3,1,0.6,1.5,1.1l-0.2-2.2V6.4h5.2v21.1h-4.2L66,26.1h-0.1c-0.5,0.5-1.1,1-1.8,1.3
				C63.4,27.7,62.7,27.9,62.1,27.9z M63.5,23.6c0.4,0,0.8-0.1,1.1-0.2c0.3-0.2,0.6-0.4,0.9-0.9v-5.6c-0.3-0.3-0.6-0.5-1-0.6
				c-0.4-0.1-0.7-0.2-1-0.2c-0.5,0-1,0.3-1.5,0.8c-0.4,0.5-0.7,1.5-0.7,2.8c0,1.4,0.2,2.3,0.6,2.9C62.2,23.3,62.8,23.6,63.5,23.6z"
				/>
		</g>
		<g>
			<path class="st0" d="M76.7,10.4c-0.8,0-1.5-0.2-2.1-0.7c-0.5-0.5-0.8-1.1-0.8-1.9c0-0.8,0.3-1.4,0.8-1.9c0.5-0.5,1.2-0.7,2.1-0.7
				c0.8,0,1.5,0.2,2.1,0.7c0.5,0.5,0.8,1.1,0.8,1.9c0,0.8-0.3,1.4-0.8,1.9C78.3,10.2,77.6,10.4,76.7,10.4z M74.1,27.5V12.3h5.2v15.2
				H74.1z"/>
		</g>
		<g>
			<path class="st0" d="M89.1,27.9c-2,0-3.4-0.6-4.3-1.7c-0.9-1.1-1.3-2.6-1.3-4.5v-5.3h-2v-3.9l2.3-0.2l0.6-3.9h4.3v3.9h3.5v4.1
				h-3.5v5.2c0,0.8,0.2,1.4,0.5,1.7c0.4,0.3,0.8,0.5,1.3,0.5c0.2,0,0.5,0,0.7-0.1c0.2-0.1,0.4-0.1,0.6-0.2l0.8,3.8
				c-0.4,0.1-0.9,0.2-1.5,0.4C90.6,27.8,89.9,27.9,89.1,27.9z"/>
		</g>
		<g>
			<path class="st1" d="M101.5,27.5V7.8h5.3l4.4,8.8l1.9,4.4h0.1c-0.1-1.1-0.3-2.3-0.4-3.6c-0.2-1.4-0.2-2.7-0.2-3.9V7.8h5v19.7
				h-5.3l-4.4-8.8l-1.9-4.4h-0.1c0.1,1.1,0.3,2.4,0.4,3.7c0.2,1.3,0.2,2.6,0.2,3.8v5.7H101.5z"/>
		</g>
		<g>
			<path class="st1" d="M128.2,27.9c-1.3,0-2.5-0.3-3.7-0.9c-1.1-0.6-2.1-1.5-2.8-2.7c-0.7-1.2-1.1-2.6-1.1-4.3
				c0-1.7,0.4-3.1,1.1-4.3c0.7-1.2,1.6-2.1,2.8-2.7c1.1-0.6,2.4-0.9,3.7-0.9c1.3,0,2.5,0.3,3.7,0.9c1.1,0.6,2.1,1.5,2.8,2.7
				c0.7,1.2,1.1,2.6,1.1,4.3c0,1.7-0.4,3.1-1.1,4.3c-0.7,1.2-1.6,2.1-2.8,2.7C130.7,27.5,129.5,27.9,128.2,27.9z M128.2,23.7
				c0.8,0,1.4-0.3,1.7-1c0.3-0.7,0.5-1.6,0.5-2.7c0-1.2-0.2-2.1-0.5-2.7c-0.3-0.7-0.9-1-1.7-1c-0.8,0-1.4,0.3-1.7,1
				c-0.3,0.7-0.5,1.6-0.5,2.7c0,1.2,0.2,2.1,0.5,2.7C126.8,23.3,127.4,23.7,128.2,23.7z"/>
		</g>
		<g>
			<path class="st1" d="M140.7,27.5l-3.6-15.2h5.2l1.2,6.4c0.1,0.8,0.2,1.5,0.3,2.3c0.1,0.8,0.2,1.5,0.3,2.3h0.1
				c0.1-0.8,0.2-1.6,0.4-2.4c0.1-0.8,0.3-1.5,0.5-2.3l1.4-6.4h4.4l1.5,6.4c0.2,0.8,0.3,1.5,0.5,2.3c0.1,0.8,0.3,1.5,0.4,2.3h0.1
				c0.1-0.8,0.2-1.6,0.3-2.3c0.1-0.8,0.2-1.5,0.3-2.3l1.2-6.4h4.8l-3.5,15.2h-6.1l-1.1-5.3c-0.1-0.7-0.2-1.4-0.4-2.1
				c-0.1-0.7-0.2-1.5-0.4-2.3h-0.1c-0.1,0.8-0.2,1.6-0.3,2.3c-0.1,0.7-0.2,1.4-0.3,2.1l-1,5.3H140.7z"/>
		</g>
		<g>
			<path class="st1" d="M163.8,11c0.3,2.5,0.6,5,0.9,7.5c0.1,1.2,0.3,2.4,0.5,3.7c0.3,0,0.9,0,1.3,0c0.1-0.6,0.2-1.3,0.3-1.9
				c0.4-3,0.8-5.9,1.2-8.9c0.2-1.2,0.3-2.3,0.4-3.5c0-0.6-0.5-1.1-1.4-1.3c-1.7-0.3-3.4,0.3-3.4,1.4C163.6,9,163.7,10,163.8,11z"/>
		</g>
		<g>
			<path class="st1" d="M165.9,24.2c-0.9,0-1.7,0.7-1.7,1.7c0,1,0.7,1.7,1.7,1.7c0.9,0,1.7-0.7,1.7-1.7
				C167.6,25,166.9,24.2,165.9,24.2z"/>
		</g>
	</g>
</g>
<g>
	<path d="M20.7,36.7h-2.2v6h-1.2v-6h-2.2v-1h5.5V36.7z"/>
	<path d="M23.8,42.7h-1.2v-5.2h1.2V42.7z M23.5,35.4h1.3l-1.3,1.5l-0.9,0L23.5,35.4z"/>
	<path d="M27.2,37.6l0,0.6c0.4-0.5,0.9-0.7,1.5-0.7c1.1,0,1.6,0.6,1.6,1.9v3.4h-1.2v-3.4c0-0.3-0.1-0.6-0.2-0.7
		c-0.1-0.2-0.4-0.2-0.7-0.2c-0.5,0-0.8,0.2-1,0.6v3.7h-1.2v-5.2H27.2z"/>
	<path d="M36.1,42.7v-7h2.1c0.6,0,1.2,0.1,1.6,0.4c0.5,0.3,0.8,0.7,1.1,1.2c0.3,0.5,0.4,1.1,0.4,1.7v0.3c0,0.7-0.1,1.2-0.4,1.7
		c-0.3,0.5-0.6,0.9-1.1,1.2c-0.5,0.3-1,0.4-1.7,0.4H36.1z M37.3,36.7v5h0.8c0.6,0,1.1-0.2,1.5-0.6c0.3-0.4,0.5-1,0.5-1.7v-0.4
		c0-0.8-0.2-1.3-0.5-1.7c-0.3-0.4-0.8-0.6-1.4-0.6H37.3z"/>
	<path d="M46.5,42.2c-0.3,0.4-0.8,0.6-1.5,0.6c-0.6,0-1-0.2-1.3-0.5c-0.3-0.3-0.4-0.8-0.4-1.4v-3.4h1.2v3.3c0,0.7,0.3,1,0.8,1
		c0.6,0,0.9-0.2,1.1-0.6v-3.7h1.2v5.2h-1.1L46.5,42.2z M44.4,43.9c0-0.2,0.1-0.3,0.2-0.4c0.1-0.1,0.3-0.2,0.5-0.2s0.4,0.1,0.5,0.2
		c0.1,0.1,0.2,0.3,0.2,0.4c0,0.2-0.1,0.3-0.2,0.4c-0.1,0.1-0.3,0.2-0.5,0.2s-0.4-0.1-0.5-0.2C44.5,44.2,44.4,44.1,44.4,43.9z"/>
	<path d="M50.9,37.6l0,0.6c0.4-0.5,0.9-0.7,1.5-0.7c1.1,0,1.6,0.6,1.6,1.9v3.4h-1.2v-3.4c0-0.3-0.1-0.6-0.2-0.7
		c-0.1-0.2-0.4-0.2-0.7-0.2c-0.5,0-0.8,0.2-1,0.6v3.7h-1.2v-5.2H50.9z"/>
	<path d="M56.1,40.1c0-0.8,0.2-1.4,0.6-1.9c0.4-0.5,0.9-0.7,1.5-0.7c0.6,0,1.1,0.2,1.4,0.6l0.1-0.5h1v5c0,0.7-0.2,1.2-0.6,1.6
		c-0.4,0.4-1,0.6-1.7,0.6c-0.4,0-0.8-0.1-1.1-0.2c-0.4-0.2-0.6-0.4-0.8-0.6l0.6-0.7c0.4,0.4,0.8,0.6,1.3,0.6c0.4,0,0.7-0.1,0.9-0.3
		c0.2-0.2,0.3-0.5,0.3-0.9v-0.3c-0.3,0.4-0.8,0.6-1.3,0.6c-0.6,0-1.1-0.2-1.5-0.7C56.2,41.6,56.1,41,56.1,40.1z M57.2,40.2
		c0,0.5,0.1,0.9,0.3,1.2c0.2,0.3,0.5,0.4,0.9,0.4c0.5,0,0.8-0.2,1-0.6V39c-0.2-0.4-0.6-0.6-1-0.6c-0.4,0-0.7,0.2-0.9,0.5
		C57.3,39.2,57.2,39.6,57.2,40.2z"/>
	<path d="M71.9,42.7h-1.2l-3.1-4.9v4.9h-1.2v-7h1.2l3.1,5v-5h1.2V42.7z"/>
	<path d="M75.3,38.1c0.4-0.4,0.9-0.7,1.4-0.7c1.1,0,1.7,0.6,1.7,1.9v3.4h-1.2v-3.3c0-0.4-0.1-0.6-0.2-0.8c-0.2-0.1-0.4-0.2-0.7-0.2
		c-0.5,0-0.8,0.2-1,0.6v3.7h-1.2v-7.4h1.2V38.1z"/>
	<path d="M83.7,42.7c-0.1-0.1-0.1-0.3-0.1-0.5c-0.4,0.4-0.8,0.6-1.4,0.6c-0.5,0-0.9-0.1-1.3-0.4c-0.3-0.3-0.5-0.7-0.5-1.1
		c0-0.6,0.2-1,0.6-1.3c0.4-0.3,1-0.4,1.8-0.4h0.7v-0.3c0-0.3-0.1-0.5-0.2-0.6c-0.2-0.2-0.4-0.2-0.7-0.2c-0.3,0-0.5,0.1-0.7,0.2
		c-0.2,0.1-0.3,0.3-0.3,0.5h-1.2c0-0.3,0.1-0.5,0.3-0.8c0.2-0.2,0.4-0.4,0.8-0.6c0.3-0.1,0.7-0.2,1.1-0.2c0.6,0,1.1,0.2,1.5,0.5
		c0.4,0.3,0.5,0.7,0.6,1.3v2.3c0,0.5,0.1,0.8,0.2,1.1v0.1H83.7z M82.5,41.9c0.2,0,0.4-0.1,0.6-0.2c0.2-0.1,0.4-0.3,0.5-0.5v-1h-0.6
		c-0.4,0-0.8,0.1-1,0.2c-0.2,0.2-0.3,0.4-0.3,0.6c0,0.2,0.1,0.4,0.2,0.5C82,41.8,82.2,41.9,82.5,41.9z"/>
	<path d="M88,37.6l0,0.6c0.4-0.5,0.9-0.7,1.5-0.7c1.1,0,1.6,0.6,1.6,1.9v3.4H90v-3.4c0-0.3-0.1-0.6-0.2-0.7
		c-0.1-0.2-0.4-0.2-0.7-0.2c-0.5,0-0.8,0.2-1,0.6v3.7h-1.2v-5.2H88z"/>
	<path d="M94.5,38.1c0.4-0.4,0.9-0.7,1.4-0.7c1.1,0,1.7,0.6,1.7,1.9v3.4h-1.2v-3.3c0-0.4-0.1-0.6-0.2-0.8c-0.2-0.1-0.4-0.2-0.7-0.2
		c-0.5,0-0.8,0.2-1,0.6v3.7h-1.2v-7.4h1.2V38.1z"/>
	<path d="M103.1,40.9c0-0.3,0.1-0.6,0.3-0.9c0.2-0.3,0.5-0.6,1-1c-0.3-0.3-0.5-0.6-0.6-0.9c-0.1-0.2-0.2-0.5-0.2-0.7
		c0-0.5,0.2-1,0.5-1.3c0.3-0.3,0.8-0.5,1.3-0.5c0.5,0,0.9,0.1,1.2,0.4c0.3,0.3,0.5,0.7,0.5,1.1c0,0.3-0.1,0.6-0.2,0.8
		c-0.1,0.2-0.4,0.5-0.7,0.7l-0.5,0.3l1.3,1.6c0.2-0.4,0.3-0.8,0.3-1.3h1c0,0.9-0.2,1.6-0.6,2.1l1,1.2h-1.4l-0.4-0.5
		c-0.5,0.4-1.1,0.6-1.8,0.6c-0.7,0-1.2-0.2-1.7-0.5C103.3,41.9,103.1,41.4,103.1,40.9z M105.4,41.9c0.4,0,0.8-0.1,1.1-0.4l-1.5-1.8
		l-0.1,0.1c-0.4,0.3-0.6,0.6-0.6,1c0,0.3,0.1,0.6,0.3,0.8C104.7,41.8,105,41.9,105.4,41.9z M104.7,37.4c0,0.3,0.2,0.6,0.5,1l0.5-0.4
		l0.1-0.1c0.2-0.2,0.3-0.4,0.3-0.7c0-0.2-0.1-0.3-0.2-0.5c-0.1-0.1-0.3-0.2-0.5-0.2c-0.2,0-0.4,0.1-0.5,0.2
		C104.8,37,104.7,37.2,104.7,37.4z"/>
	<path d="M118.8,36.7h-2.2v6h-1.2v-6h-2.2v-1h5.5V36.7z"/>
	<path d="M119.4,40.1c0-0.5,0.1-1,0.3-1.4c0.2-0.4,0.5-0.7,0.8-0.9c0.4-0.2,0.8-0.3,1.3-0.3c0.7,0,1.3,0.2,1.7,0.7
		c0.4,0.5,0.7,1,0.7,1.8l0,0.3c0,0.5-0.1,1-0.3,1.4c-0.2,0.4-0.5,0.7-0.8,0.9c-0.4,0.2-0.8,0.3-1.3,0.3c-0.7,0-1.3-0.2-1.8-0.7
		C119.6,41.6,119.4,41,119.4,40.1L119.4,40.1z M120.6,40.2c0,0.5,0.1,1,0.3,1.3c0.2,0.3,0.5,0.5,0.9,0.5c0.4,0,0.7-0.2,0.9-0.5
		c0.2-0.3,0.3-0.8,0.3-1.3c0-0.5-0.1-0.9-0.3-1.2c-0.2-0.3-0.5-0.5-0.9-0.5c-0.4,0-0.7,0.2-0.9,0.5
		C120.7,39.1,120.6,39.6,120.6,40.2z"/>
	<path d="M129.3,42.7c-0.1-0.1-0.1-0.3-0.1-0.5c-0.4,0.4-0.8,0.6-1.4,0.6c-0.5,0-0.9-0.1-1.3-0.4c-0.3-0.3-0.5-0.7-0.5-1.1
		c0-0.6,0.2-1,0.6-1.3c0.4-0.3,1-0.4,1.8-0.4h0.7v-0.3c0-0.3-0.1-0.5-0.2-0.6c-0.2-0.2-0.4-0.2-0.7-0.2c-0.3,0-0.5,0.1-0.7,0.2
		c-0.2,0.1-0.3,0.3-0.3,0.5h-1.2c0-0.3,0.1-0.5,0.3-0.8c0.2-0.2,0.4-0.4,0.8-0.6c0.3-0.1,0.7-0.2,1.1-0.2c0.6,0,1.1,0.2,1.5,0.5
		c0.4,0.3,0.5,0.7,0.6,1.3v2.3c0,0.5,0.1,0.8,0.2,1.1v0.1H129.3z M128.9,36.8l-1,0l-1.3-1.5h1.3L128.9,36.8z M128,41.9
		c0.2,0,0.4-0.1,0.6-0.2c0.2-0.1,0.4-0.3,0.5-0.5v-1h-0.6c-0.4,0-0.8,0.1-1,0.2c-0.2,0.2-0.3,0.4-0.3,0.6c0,0.2,0.1,0.4,0.2,0.5
		C127.6,41.8,127.8,41.9,128,41.9z"/>
	<path d="M133.6,37.6l0,0.6c0.4-0.5,0.9-0.7,1.5-0.7c1.1,0,1.6,0.6,1.6,1.9v3.4h-1.2v-3.4c0-0.3-0.1-0.6-0.2-0.7
		c-0.1-0.2-0.4-0.2-0.7-0.2c-0.5,0-0.8,0.2-1,0.6v3.7h-1.2v-5.2H133.6z"/>
	<path d="M142.5,42.7v-7h2.1c0.6,0,1.2,0.1,1.6,0.4c0.5,0.3,0.8,0.7,1.1,1.2c0.3,0.5,0.4,1.1,0.4,1.7v0.3c0,0.7-0.1,1.2-0.4,1.7
		c-0.3,0.5-0.6,0.9-1.1,1.2c-0.5,0.3-1,0.4-1.7,0.4H142.5z M143.7,36.7v5h0.8c0.6,0,1.1-0.2,1.5-0.6c0.3-0.4,0.5-1,0.5-1.7v-0.4
		c0-0.8-0.2-1.3-0.5-1.7c-0.3-0.4-0.8-0.6-1.4-0.6H143.7z"/>
	<path d="M149.8,36.2c0-0.2,0.1-0.3,0.2-0.4c0.1-0.1,0.3-0.2,0.5-0.2s0.4,0.1,0.5,0.2c0.1,0.1,0.2,0.3,0.2,0.4
		c0,0.2-0.1,0.3-0.2,0.4c-0.1,0.1-0.3,0.2-0.5,0.2s-0.4-0.1-0.5-0.2C149.8,36.5,149.8,36.4,149.8,36.2z M151,42.7h-1.2v-5.2h1.2
		V42.7z"/>
	<path d="M155.5,42.8c-0.7,0-1.3-0.2-1.8-0.7c-0.5-0.5-0.7-1.1-0.7-1.9v-0.1c0-0.5,0.1-1,0.3-1.4c0.2-0.4,0.5-0.7,0.8-1
		c0.4-0.2,0.8-0.3,1.2-0.3c0.7,0,1.3,0.2,1.6,0.7c0.4,0.5,0.6,1.1,0.6,1.9v0.5h-3.4c0,0.4,0.2,0.8,0.4,1c0.3,0.2,0.6,0.4,0.9,0.4
		c0.5,0,1-0.2,1.3-0.6l0.6,0.6c-0.2,0.3-0.5,0.6-0.8,0.7C156.4,42.7,156,42.8,155.5,42.8z M157,36.7L157,36.7l-0.9,0.1l-0.7-0.7
		l-0.7,0.7l-0.9,0v-0.1l1.3-1.3h0.7L157,36.7z M155.4,38.4c-0.3,0-0.6,0.1-0.8,0.3c-0.2,0.2-0.3,0.5-0.4,0.9h2.2v-0.1
		c0-0.4-0.1-0.7-0.3-0.9C156,38.5,155.7,38.4,155.4,38.4z M154.7,43.9c0-0.2,0.1-0.3,0.2-0.4c0.1-0.1,0.3-0.2,0.5-0.2
		s0.4,0.1,0.5,0.2c0.1,0.1,0.2,0.3,0.2,0.4c0,0.2-0.1,0.3-0.2,0.4c-0.1,0.1-0.3,0.2-0.5,0.2s-0.4-0.1-0.5-0.2
		C154.8,44.2,154.7,44.1,154.7,43.9z"/>
	<path d="M160.6,37.6l0,0.6c0.4-0.5,0.9-0.7,1.5-0.7c1.1,0,1.6,0.6,1.6,1.9v3.4h-1.2v-3.4c0-0.3-0.1-0.6-0.2-0.7
		c-0.1-0.2-0.4-0.2-0.7-0.2c-0.5,0-0.8,0.2-1,0.6v3.7h-1.2v-5.2H160.6z"/>
</g>
</svg>
